<svg width="191" height="73" viewBox="0 0 191 73" fill="none" xmlns="http://www.w3.org/2000/svg">
<circle cx="34.9337" cy="33.9766" r="33.9766" fill="#09223B"/>
<circle cx="34.9336" cy="33.9766" r="26.639" fill="#FFC531"/>
<rect x="16.1108" y="16.5895" width="63.3273" height="53.5969" fill="#FFC531"/>
<rect x="43.3977" y="16.7491" width="7.37374" height="59.9405" transform="rotate(38.9184 43.3977 16.7491)" fill="#09223B"/>
<rect x="56.4727" y="16.7491" width="7.37374" height="50.5772" transform="rotate(38.9184 56.4727 16.7491)" fill="#09223B"/>
<path d="M69.5527 16.7491L75.2898 21.3813L49.3904 53.4578L43.6533 48.8256L69.5527 16.7491Z" fill="#09223B"/>
<rect x="22.6509" y="56.6277" width="33.1791" height="15.6324" fill="#FFC531"/>
<rect x="42.9094" y="45.9402" width="31.1054" height="13.3992" fill="#FFC531"/>
<rect x="23.1814" y="32.541" width="52.7223" height="2.07369" fill="#FFC531"/>
<rect x="11.0779" y="44.0261" width="52.7223" height="2.07369" fill="#FFC531"/>
<rect y="55.5111" width="52.7223" height="2.07369" fill="#FFC531"/>
<rect x="33.2683" y="23.9675" width="41.4959" height="1.96748" fill="#FFC531"/>
<rect x="43.4634" y="23.9675" width="7.15447" height="32.374" transform="rotate(-90 43.4634 23.9675)" fill="#09223B"/>
<path d="M74.0488 20.0515C74.0488 16.8799 76.6198 14.3089 79.7914 14.3089H87.5158V25.794H79.7914C76.6198 25.794 74.0488 23.223 74.0488 20.0515Z" fill="#09223B"/>
<rect x="83.6682" y="16.4818" width="10.9018" height="2.01765" fill="#09223B"/>
<rect x="83.6682" y="21.6035" width="10.9018" height="2.01765" fill="#09223B"/>
<path d="M42.0474 53.6968H43.5488V55.4985H47.7969V46.4971H49.2983V55.4985C49.2983 55.7036 49.2568 55.8989 49.1738 56.0845C49.0957 56.2651 48.9883 56.4238 48.8516 56.5605C48.7197 56.6973 48.561 56.8047 48.3755 56.8828C48.1948 56.9609 48.002 57 47.7969 57H43.5488C43.3438 57 43.1484 56.9609 42.9629 56.8828C42.7822 56.8047 42.6235 56.6973 42.4868 56.5605C42.355 56.4238 42.2476 56.2651 42.1646 56.0845C42.0864 55.8989 42.0474 55.7036 42.0474 55.4985V53.6968ZM52.001 57V46.4971H57.7505C59.4497 46.4971 60.2993 47.3491 60.2993 49.0532V50.5474C60.2993 52.2515 59.4497 53.1035 57.7505 53.1035H53.5024V57H52.001ZM53.5024 51.6021H57.6699C58.0703 51.6021 58.3584 51.5142 58.5342 51.3384C58.71 51.1626 58.7979 50.8745 58.7979 50.4741V49.1265C58.7979 48.7261 58.71 48.438 58.5342 48.2622C58.3584 48.0864 58.0703 47.9985 57.6699 47.9985H53.5024V51.6021ZM69.0005 55.5571C69.0005 55.7573 68.9614 55.9453 68.8833 56.1211C68.8101 56.2969 68.7075 56.4507 68.5757 56.5825C68.4487 56.7095 68.2974 56.812 68.1216 56.8901C67.9507 56.9634 67.7651 57 67.5649 57H63.6904C63.4951 57 63.3096 56.9634 63.1338 56.8901C62.958 56.812 62.8042 56.7095 62.6724 56.5825C62.5454 56.4507 62.4429 56.2969 62.3647 56.1211C62.2915 55.9453 62.2549 55.7573 62.2549 55.5571V50.6426C62.2549 50.4424 62.2915 50.2544 62.3647 50.0786C62.4429 49.9028 62.5454 49.7515 62.6724 49.6245C62.8042 49.4927 62.958 49.3901 63.1338 49.3169C63.3096 49.2388 63.4951 49.1997 63.6904 49.1997H67.5649C67.7651 49.1997 67.9507 49.2388 68.1216 49.3169C68.2974 49.3901 68.4487 49.4927 68.5757 49.6245C68.7075 49.7515 68.8101 49.9028 68.8833 50.0786C68.9614 50.2544 69.0005 50.4424 69.0005 50.6426V55.5571ZM63.6904 50.6426V55.5571H67.5649V50.6426H63.6904ZM73.0288 57L70.5093 49.1997H71.9668L73.8125 55.0811L75.5337 49.1997H77.0059L78.7271 55.0811L80.5728 49.1997H82.0303L79.5107 57H78.0093L76.2661 51.2725L74.5303 57H73.0288ZM90.1382 53.8359H84.9746V55.5571H90.1382V57H84.9746C84.7793 57 84.5938 56.9634 84.418 56.8901C84.2422 56.812 84.0884 56.7095 83.9565 56.5825C83.8296 56.4507 83.7271 56.2969 83.6489 56.1211C83.5757 55.9453 83.5391 55.7573 83.5391 55.5571V50.6426C83.5391 50.4424 83.5757 50.2544 83.6489 50.0786C83.7271 49.9028 83.8296 49.7515 83.9565 49.6245C84.0884 49.4927 84.2422 49.3901 84.418 49.3169C84.5938 49.2388 84.7793 49.1997 84.9746 49.1997H88.6953C88.8955 49.1997 89.0835 49.2388 89.2593 49.3169C89.4351 49.3901 89.5864 49.4927 89.7134 49.6245C89.8452 49.7515 89.9478 49.9028 90.021 50.0786C90.0991 50.2544 90.1382 50.4424 90.1382 50.6426V53.8359ZM84.9746 50.6426V52.3931H88.6953V50.6426H84.9746ZM93.9834 50.6426V57H92.5479V49.1997H93.9834V50.5767C93.9932 50.3862 94.0371 50.208 94.1152 50.042C94.1934 49.8711 94.2959 49.7246 94.4229 49.6025C94.5547 49.4756 94.7061 49.3779 94.877 49.3096C95.0479 49.2363 95.231 49.1997 95.4263 49.1997H96.957C97.1572 49.1997 97.3428 49.2388 97.5137 49.3169C97.6895 49.3901 97.8433 49.4927 97.9751 49.6245C98.1069 49.7515 98.2095 49.9028 98.2827 50.0786C98.3608 50.2544 98.3999 50.4424 98.3999 50.6426V51.9609H96.957V50.6426H93.9834ZM104.838 47.9985C104.838 47.7935 104.877 47.6006 104.955 47.4199C105.033 47.2344 105.141 47.0757 105.277 46.9438C105.414 46.8071 105.573 46.6997 105.753 46.6216C105.939 46.5386 106.134 46.4971 106.339 46.4971H112.038C112.243 46.4971 112.436 46.5386 112.616 46.6216C112.802 46.6997 112.963 46.8071 113.1 46.9438C113.236 47.0757 113.344 47.2344 113.422 47.4199C113.5 47.6006 113.539 47.7935 113.539 47.9985V49.3535H112.038V47.9985H106.339V55.4985H112.038V54.1509H113.539V55.4985C113.539 55.7036 113.5 55.8989 113.422 56.0845C113.344 56.2651 113.236 56.4238 113.1 56.5605C112.963 56.6973 112.802 56.8047 112.616 56.8828C112.436 56.9609 112.243 57 112.038 57H106.339C106.134 57 105.939 56.9609 105.753 56.8828C105.573 56.8047 105.414 56.6973 105.277 56.5605C105.141 56.4238 105.033 56.2651 104.955 56.0845C104.877 55.8989 104.838 55.7036 104.838 55.4985V47.9985ZM122.541 55.5571C122.541 55.7573 122.501 55.9453 122.423 56.1211C122.35 56.2969 122.248 56.4507 122.116 56.5825C121.989 56.7095 121.837 56.812 121.662 56.8901C121.491 56.9634 121.305 57 121.105 57H117.23C117.035 57 116.85 56.9634 116.674 56.8901C116.498 56.812 116.344 56.7095 116.212 56.5825C116.085 56.4507 115.983 56.2969 115.905 56.1211C115.832 55.9453 115.795 55.7573 115.795 55.5571V50.6426C115.795 50.4424 115.832 50.2544 115.905 50.0786C115.983 49.9028 116.085 49.7515 116.212 49.6245C116.344 49.4927 116.498 49.3901 116.674 49.3169C116.85 49.2388 117.035 49.1997 117.23 49.1997H121.105C121.305 49.1997 121.491 49.2388 121.662 49.3169C121.837 49.3901 121.989 49.4927 122.116 49.6245C122.248 49.7515 122.35 49.9028 122.423 50.0786C122.501 50.2544 122.541 50.4424 122.541 50.6426V55.5571ZM117.23 50.6426V55.5571H121.105V50.6426H117.23ZM131.85 57H130.407V50.6426H126.386V57H124.95V49.1997H126.386V50.5767C126.396 50.3862 126.439 50.208 126.518 50.042C126.596 49.8711 126.698 49.7246 126.825 49.6025C126.957 49.4756 127.108 49.3779 127.279 49.3096C127.45 49.2363 127.633 49.1997 127.829 49.1997H130.407C130.607 49.1997 130.795 49.2388 130.971 49.3169C131.146 49.3901 131.298 49.4927 131.425 49.6245C131.557 49.7515 131.659 49.9028 131.732 50.0786C131.811 50.2544 131.85 50.4424 131.85 50.6426V57ZM141.151 57H139.708V50.6426H135.688V57H134.252V49.1997H135.688V50.5767C135.697 50.3862 135.741 50.208 135.819 50.042C135.897 49.8711 136 49.7246 136.127 49.6025C136.259 49.4756 136.41 49.3779 136.581 49.3096C136.752 49.2363 136.935 49.1997 137.13 49.1997H139.708C139.909 49.1997 140.097 49.2388 140.272 49.3169C140.448 49.3901 140.6 49.4927 140.727 49.6245C140.858 49.7515 140.961 49.9028 141.034 50.0786C141.112 50.2544 141.151 50.4424 141.151 50.6426V57ZM150.153 53.8359H144.989V55.5571H150.153V57H144.989C144.794 57 144.608 56.9634 144.433 56.8901C144.257 56.812 144.103 56.7095 143.971 56.5825C143.844 56.4507 143.742 56.2969 143.664 56.1211C143.59 55.9453 143.554 55.7573 143.554 55.5571V50.6426C143.554 50.4424 143.59 50.2544 143.664 50.0786C143.742 49.9028 143.844 49.7515 143.971 49.6245C144.103 49.4927 144.257 49.3901 144.433 49.3169C144.608 49.2388 144.794 49.1997 144.989 49.1997H148.71C148.91 49.1997 149.098 49.2388 149.274 49.3169C149.45 49.3901 149.601 49.4927 149.728 49.6245C149.86 49.7515 149.962 49.9028 150.036 50.0786C150.114 50.2544 150.153 50.4424 150.153 50.6426V53.8359ZM144.989 50.6426V52.3931H148.71V50.6426H144.989ZM153.998 50.6426V55.5571H157.719V54.2388H159.162V55.5571C159.162 55.7573 159.123 55.9453 159.044 56.1211C158.971 56.2969 158.869 56.4507 158.737 56.5825C158.61 56.7095 158.458 56.812 158.283 56.8901C158.107 56.9634 157.919 57 157.719 57H153.998C153.803 57 153.617 56.9634 153.441 56.8901C153.266 56.812 153.112 56.7095 152.98 56.5825C152.853 56.4507 152.75 56.2969 152.672 56.1211C152.599 55.9453 152.562 55.7573 152.562 55.5571V50.6426C152.562 50.4424 152.599 50.2544 152.672 50.0786C152.75 49.9028 152.853 49.7515 152.98 49.6245C153.112 49.4927 153.266 49.3901 153.441 49.3169C153.617 49.2388 153.803 49.1997 153.998 49.1997H157.719C157.919 49.1997 158.107 49.2388 158.283 49.3169C158.458 49.3901 158.61 49.4927 158.737 49.6245C158.869 49.7515 158.971 49.9028 159.044 50.0786C159.123 50.2544 159.162 50.4424 159.162 50.6426V51.9609H157.719V50.6426H153.998ZM161.117 49.1997H163.021V46.7974H164.464V49.1997H167.028V50.6426H164.464V55.5571H167.028V57H164.464C164.269 57 164.083 56.9634 163.908 56.8901C163.732 56.812 163.578 56.7095 163.446 56.5825C163.314 56.4507 163.209 56.2969 163.131 56.1211C163.058 55.9453 163.021 55.7573 163.021 55.5571V50.6426H161.117V49.1997ZM170.954 49.1997V57H169.511V49.1997H170.954ZM169.438 46.1968H171.027V47.6982H169.438V46.1968ZM180.182 55.5571C180.182 55.7573 180.143 55.9453 180.065 56.1211C179.992 56.2969 179.889 56.4507 179.757 56.5825C179.63 56.7095 179.479 56.812 179.303 56.8901C179.132 56.9634 178.947 57 178.747 57H174.872C174.677 57 174.491 56.9634 174.315 56.8901C174.14 56.812 173.986 56.7095 173.854 56.5825C173.727 56.4507 173.625 56.2969 173.546 56.1211C173.473 55.9453 173.437 55.7573 173.437 55.5571V50.6426C173.437 50.4424 173.473 50.2544 173.546 50.0786C173.625 49.9028 173.727 49.7515 173.854 49.6245C173.986 49.4927 174.14 49.3901 174.315 49.3169C174.491 49.2388 174.677 49.1997 174.872 49.1997H178.747C178.947 49.1997 179.132 49.2388 179.303 49.3169C179.479 49.3901 179.63 49.4927 179.757 49.6245C179.889 49.7515 179.992 49.9028 180.065 50.0786C180.143 50.2544 180.182 50.4424 180.182 50.6426V55.5571ZM174.872 50.6426V55.5571H178.747V50.6426H174.872ZM189.491 57H188.048V50.6426H184.027V57H182.592V49.1997H184.027V50.5767C184.037 50.3862 184.081 50.208 184.159 50.042C184.237 49.8711 184.34 49.7246 184.467 49.6025C184.599 49.4756 184.75 49.3779 184.921 49.3096C185.092 49.2363 185.275 49.1997 185.47 49.1997H188.048C188.249 49.1997 188.437 49.2388 188.612 49.3169C188.788 49.3901 188.939 49.4927 189.066 49.6245C189.198 49.7515 189.301 49.9028 189.374 50.0786C189.452 50.2544 189.491 50.4424 189.491 50.6426V57Z" fill="#09223B"/>
</svg>
