<svg width="82" height="82" viewBox="0 0 82 82" fill="none" xmlns="http://www.w3.org/2000/svg">
<path fill-rule="evenodd" clip-rule="evenodd" d="M5.42851 41.9103L1.95991 39.9095H1.93531C1.84203 39.8553 1.76038 39.7831 1.69504 39.6973C1.62969 39.6114 1.58194 39.5135 1.55451 39.4091C1.52709 39.3047 1.52053 39.196 1.53522 39.0891C1.54991 38.9822 1.58555 38.8792 1.64011 38.7861L24.0097 0.992307C24.1192 0.806141 24.2978 0.670711 24.5066 0.615439C24.7154 0.560166 24.9376 0.589514 25.1249 0.697107L59.4665 20.4919C59.5231 20.5235 59.5754 20.562 59.6223 20.6067L80.1715 39.1305C80.2972 39.2431 80.3851 39.3916 80.4233 39.556C80.4615 39.7204 80.448 39.8925 80.3847 40.0489C80.3193 40.2094 80.2047 40.3451 80.0574 40.4365C79.9101 40.5278 79.7376 40.5701 79.5647 40.5573H78.3019V59.2697C78.301 59.4128 78.2627 59.5532 78.1908 59.6769C78.1189 59.8006 78.0158 59.9034 77.8919 59.9749L40.9919 81.2949H40.9345H40.8689C40.78 81.3301 40.6857 81.3496 40.5901 81.3523C40.495 81.3522 40.4007 81.3355 40.3113 81.3031H40.2375H40.1801L5.82211 61.3935C5.69697 61.3213 5.59315 61.2172 5.52115 61.0919C5.44915 60.9667 5.41154 60.8246 5.41211 60.6801L5.42851 41.9103ZM38.8845 61.2295L7.06851 42.8615L7.05211 60.2455L39.7783 79.2039L39.7291 61.2295C39.6672 61.2762 39.5979 61.3122 39.5241 61.3361C39.448 61.3481 39.3706 61.3481 39.2945 61.3361C39.1509 61.3371 39.0095 61.3003 38.8845 61.2295ZM71.8895 45.1001L65.6985 48.7081L65.6821 65.0835L71.8895 61.5001V45.1001ZM76.7029 58.8023V38.2449L59.3107 22.5337L41.3609 58.2201L41.3937 79.2367L64.0585 66.1167V48.2653C64.0594 48.1222 64.0977 47.9818 64.1696 47.8581C64.2415 47.7344 64.3446 47.6317 64.4685 47.5601L72.2913 43.0091C72.416 42.9371 72.5574 42.8992 72.7013 42.8992C72.8453 42.8992 72.9867 42.9371 73.1113 43.0091C73.2352 43.0807 73.3383 43.1834 73.4102 43.3071C73.4822 43.4308 73.5204 43.5712 73.5213 43.7143L73.5705 60.6063L76.7029 58.8023ZM57.9823 21.5251L25.0019 2.52571L3.52611 38.8681L38.9829 59.3681L39.8029 57.7281V57.6789L57.9823 21.5251ZM42.9928 44.7885L28.118 36.2031L28.0524 36.1867L20.5904 31.8817L13.1448 27.5767C13.1038 27.5603 13.0464 27.4947 13.0464 27.4947C12.9942 27.4574 12.9473 27.4133 12.907 27.3635C12.8793 27.3216 12.8546 27.2777 12.8332 27.2323C12.8266 27.2126 12.8148 27.1929 12.803 27.1733C12.7853 27.1437 12.7676 27.1142 12.7676 27.0847C12.7595 27.0331 12.7595 26.9805 12.7676 26.9289C12.7635 26.8743 12.7635 26.8195 12.7676 26.7649C12.7803 26.7172 12.7967 26.6706 12.8168 26.6255C12.8309 26.5692 12.8501 26.5143 12.8742 26.4615L16.9742 19.5981L21.025 12.7511L25.125 5.8713C25.1584 5.83116 25.194 5.79284 25.2316 5.7565C25.2632 5.70976 25.3019 5.66826 25.3463 5.6335C25.3736 5.61234 25.404 5.59573 25.4366 5.5843C25.496 5.54762 25.5593 5.51738 25.6252 5.4941H25.7236C25.7941 5.48185 25.8662 5.48185 25.9368 5.4941C25.9801 5.48589 26.0246 5.48589 26.068 5.4941C26.1279 5.50449 26.186 5.52384 26.2402 5.5515L33.2758 9.5777L40.3606 13.6777L54.5712 21.8777C54.6122 21.9023 54.6778 21.9679 54.6778 21.9679C54.7226 22.0018 54.7638 22.0403 54.8008 22.0827C54.8284 22.1246 54.8531 22.1685 54.8745 22.2139C54.9031 22.2569 54.9252 22.3039 54.9402 22.3533C54.9441 22.4052 54.9441 22.4572 54.9402 22.5091C54.9483 22.5607 54.9483 22.6133 54.9402 22.6649C54.9486 22.7165 54.9486 22.7691 54.9402 22.8207V22.9601L44.0752 44.4769L44.0096 44.5589L43.9522 44.6327L43.8538 44.7147L43.78 44.7721L43.6488 44.8295H43.575C43.5041 44.838 43.4326 44.838 43.3618 44.8295H43.165H43.0994L42.9928 44.7885ZM25.3136 25.3627L22.1812 30.8813L28.1918 34.3499L31.234 28.7821L25.3136 25.3627ZM17.991 21.1233L14.7602 26.5845L20.779 30.0613L23.9114 24.5427L17.991 21.1233ZM27.8802 17.5973L22.0582 14.2845L18.811 19.6801L24.7478 23.1159L27.8802 17.5973ZM31.7916 10.6601L26.1008 7.3801L22.911 12.8495L28.6509 16.1787L31.7916 10.6601ZM35.8506 20.3361L38.901 14.7601L33.2102 11.4801L30.1106 16.9987L35.8506 20.3361ZM43.0583 24.4853L46.0104 18.8601L40.3195 15.5801L37.3184 21.1561L43.0583 24.4853ZM50.258 28.6509L53.1115 22.9601L47.429 19.6801L44.518 25.3135L50.258 28.6509ZM40.7624 32.3819L46.6582 35.7849L49.52 30.1023L43.7144 26.7485L40.7624 32.3819ZM37.0478 39.4667L43.0666 42.9353L45.9202 37.2527L39.9998 33.8333L37.0478 39.4667ZM42.3121 25.9285L36.5066 22.5829L33.4644 28.1589L39.3602 31.5619L42.3121 25.9285ZM26.1418 23.9359L32.0376 27.3389L35.088 21.7629L29.2824 18.4173L26.1418 23.9359ZM38.5976 33.0133L32.6772 29.6021L29.635 35.1699L35.6456 38.6467L38.5976 33.0133ZM46.2154 72.9801C46.3404 73.0509 46.4817 73.0877 46.6254 73.0867C46.769 73.0877 46.9104 73.0509 47.0354 72.9801L54.9402 68.4127C55.0653 68.3404 55.1691 68.2364 55.2411 68.1111C55.3131 67.9859 55.3508 67.8438 55.3502 67.6993V55.5223C55.3508 55.3778 55.3131 55.2357 55.2411 55.1104C55.1691 54.9852 55.0653 54.8811 54.9402 54.8089C54.8155 54.7369 54.6741 54.699 54.5302 54.699C54.3862 54.699 54.2448 54.7369 54.1202 54.8089L50.4548 56.9245C50.2517 56.9547 50.0674 57.0601 49.9382 57.2197L46.2072 59.3763C46.0821 59.4485 45.9782 59.5526 45.9062 59.6778C45.8342 59.8031 45.7966 59.9452 45.7972 60.0897V72.2667C45.7974 72.412 45.8363 72.5546 45.9098 72.68C45.9833 72.8053 46.0887 72.9089 46.2154 72.9801ZM53.7184 67.2401L51.324 68.6177L51.3978 58.2857L53.7184 56.9491V67.2401ZM47.4454 60.5653L49.7496 59.2369L49.6758 69.5689L47.4454 70.8481V60.5653ZM14.9732 48.8474L18.7042 51.004C18.8282 51.0756 18.9312 51.1783 19.0031 51.302C19.0751 51.4257 19.1134 51.5661 19.1142 51.7092V63.8944C19.1148 64.0389 19.0772 64.181 19.0052 64.3063C18.9332 64.4315 18.8294 64.5356 18.7042 64.6078C18.5793 64.6787 18.4379 64.7154 18.2942 64.7144C18.1506 64.7154 18.0092 64.6787 17.8842 64.6078L9.97123 60.0404C9.8461 59.9682 9.74227 59.8641 9.67027 59.7389C9.59828 59.6136 9.56066 59.4715 9.56123 59.327V47.1418C9.5621 46.9987 9.60039 46.8583 9.67232 46.7346C9.74425 46.6109 9.8473 46.5082 9.97123 46.4366C10.0959 46.3647 10.2373 46.3268 10.3812 46.3268C10.5252 46.3268 10.6666 46.3647 10.7912 46.4366L14.4566 48.5522C14.558 48.5647 14.6559 48.5973 14.7446 48.648C14.8332 48.6986 14.911 48.7664 14.9732 48.8474ZM13.5218 49.8888L11.2012 48.544V58.835L13.5956 60.2208L13.5218 49.8888ZM15.2438 61.1966L17.4742 62.484V52.1684L15.17 50.84L15.2438 61.1966ZM35.0796 60.1388L31.3486 57.9822C31.2194 57.8226 31.0351 57.7173 30.832 57.687L27.1666 55.5714C27.0423 55.4997 26.9014 55.4618 26.7578 55.4616C26.6143 55.4614 26.4733 55.4988 26.3487 55.5702C26.2242 55.6416 26.1206 55.7444 26.0483 55.8684C25.976 55.9923 25.9375 56.1331 25.9366 56.2766V68.4618C25.936 68.6063 25.9737 68.7484 26.0457 68.8737C26.1176 68.999 26.2215 69.103 26.3466 69.1752L34.2596 73.7426C34.3846 73.8135 34.526 73.8502 34.6696 73.8492C34.8133 73.8502 34.9546 73.8135 35.0796 73.7426C35.2047 73.6704 35.3086 73.5664 35.3806 73.4411C35.4526 73.3158 35.4902 73.1737 35.4896 73.0292V60.8522C35.4902 60.7077 35.4526 60.5657 35.3806 60.4404C35.3086 60.3151 35.2047 60.2111 35.0796 60.1388ZM27.5766 57.6788L29.8972 59.04L29.971 69.372L27.5766 67.9862V57.6788ZM33.8496 71.6188L31.6192 70.3314L31.5454 59.9994L33.8496 61.3278V71.6188ZM56.4244 44.8623C56.2807 44.8633 56.1393 44.8265 56.0144 44.7557C55.8938 44.6804 55.7949 44.575 55.7273 44.45C55.6598 44.3249 55.6259 44.1844 55.629 44.0423V34.9075C55.6298 34.7644 55.6681 34.624 55.7401 34.5003C55.812 34.3766 55.915 34.2738 56.039 34.2023L61.3362 31.1355C61.4608 31.0635 61.6022 31.0256 61.7462 31.0256C61.8901 31.0256 62.0315 31.0635 62.1562 31.1355C62.2813 31.2077 62.3851 31.3118 62.4571 31.437C62.5291 31.5623 62.5667 31.7044 62.5662 31.8489V40.9673C62.5667 41.1118 62.5291 41.2539 62.4571 41.3791C62.3851 41.5044 62.2813 41.6084 62.1562 41.6807L56.8344 44.7557C56.7094 44.8265 56.568 44.8633 56.4244 44.8623ZM60.9098 33.2675L57.2444 35.3831V42.6401L60.9098 40.4999V33.2675Z" fill="#001F45"/>
</svg>
