<svg width="100" height="100" viewBox="0 0 100 100" fill="none" xmlns="http://www.w3.org/2000/svg">
<path d="M48.5999 16.34L37.1299 9.70996L48.6199 3.07996L60.0899 9.70996L48.5999 16.34Z" stroke="#001F45" stroke-width="2" stroke-linecap="round" stroke-linejoin="round"/>
<path d="M60.0899 23.6699L48.5999 30.2999L37.1299 23.6699" stroke="#001F45" stroke-width="2" stroke-linecap="round" stroke-linejoin="round"/>
<path d="M48.5999 44.27L37.1299 37.63" stroke="#001F45" stroke-width="2" stroke-linecap="round" stroke-linejoin="round"/>
<path d="M57.8899 52.86L48.5999 58.23L37.1299 51.6" stroke="#001F45" stroke-width="2" stroke-linecap="round" stroke-linejoin="round"/>
<path d="M37.1299 65.5599L48.5999 72.1899L60.0899 65.5599" stroke="#001F45" stroke-width="2" stroke-linecap="round" stroke-linejoin="round"/>
<path d="M60.0898 23.67V9.70996" stroke="#001F45" stroke-width="2" stroke-linecap="round" stroke-linejoin="round"/>
<path d="M68.75 85.28L62.48 71" stroke="#001F45" stroke-width="2" stroke-linecap="round" stroke-linejoin="round"/>
<path d="M61.05 67.7599L60.05 65.5599V57.2799" stroke="#001F45" stroke-width="2" stroke-linecap="round" stroke-linejoin="round"/>
<path d="M37.13 9.70996V65.56L28.46 85.28" stroke="#001F45" stroke-width="2" stroke-linecap="round" stroke-linejoin="round"/>
<path d="M48.5999 16.34V81.93" stroke="#001F45" stroke-width="2" stroke-linecap="round" stroke-linejoin="round"/>
<path d="M48.5898 86.3199V96.9199" stroke="#001F45" stroke-width="2" stroke-linecap="round" stroke-linejoin="round"/>
<path d="M85.1298 52.0899L73.6398 58.7299L12.0898 23.1799L23.5698 16.5399" stroke="#001F45" stroke-width="2" stroke-linecap="round" stroke-linejoin="round"/>
<path d="M85.1298 52.0899L60.0898 23.6699V37.8799" stroke="#001F45" stroke-width="2" stroke-linecap="round" stroke-linejoin="round"/>
<path d="M73.6399 58.7299L48.5999 30.3099" stroke="#001F45" stroke-width="2" stroke-linecap="round" stroke-linejoin="round"/>
<path d="M33.6501 16.7399L23.5701 16.5399" stroke="#001F45" stroke-width="2" stroke-linecap="round" stroke-linejoin="round"/>
<path d="M12.0898 23.1799L37.1298 23.6699" stroke="#001F45" stroke-width="2" stroke-linecap="round" stroke-linejoin="round"/>
<path d="M59.4299 46.42V42.6L70.7299 35.75" stroke="#001F45" stroke-width="2" stroke-linecap="round" stroke-linejoin="round"/>
<path d="M31.71 20.1L26.22 23.43V27.63" stroke="#001F45" stroke-width="2" stroke-linecap="round" stroke-linejoin="round"/>
<path d="M48.6199 3.07996V9.70996" stroke="#001F45" stroke-width="2" stroke-linecap="round" stroke-linejoin="round"/>
<path d="M68.7501 85.2799L57.0701 77.6899" stroke="#001F45" stroke-width="2" stroke-linecap="round" stroke-linejoin="round"/>
<path d="M54.2899 75.8799L48.5999 72.1899" stroke="#001F45" stroke-width="2" stroke-linecap="round" stroke-linejoin="round"/>
<path d="M48.5898 96.9199L54.8298 79.9199" stroke="#001F45" stroke-width="2" stroke-linecap="round" stroke-linejoin="round"/>
<path d="M57.77 71.8799L60.09 65.5599" stroke="#001F45" stroke-width="2" stroke-linecap="round" stroke-linejoin="round"/>
<path d="M28.46 85.2799L48.6 72.1899" stroke="#001F45" stroke-width="2" stroke-linecap="round" stroke-linejoin="round"/>
<path d="M48.5898 96.92L45.5898 88.73" stroke="#001F45" stroke-width="2" stroke-linecap="round" stroke-linejoin="round"/>
<path d="M44.3399 85.2999L37.1299 65.5599" stroke="#001F45" stroke-width="2" stroke-linecap="round" stroke-linejoin="round"/>
<path d="M48.5999 72.19L37.1299 51.6" stroke="#001F45" stroke-width="2" stroke-linecap="round" stroke-linejoin="round"/>
<path d="M48.5999 57.79L37.1299 37.2" stroke="#001F45" stroke-width="2" stroke-linecap="round" stroke-linejoin="round"/>
<path d="M48.5999 44.46L37.1299 23.87" stroke="#001F45" stroke-width="2" stroke-linecap="round" stroke-linejoin="round"/>
<path d="M48.5999 30.3999L37.1299 9.79993" stroke="#001F45" stroke-width="2" stroke-linecap="round" stroke-linejoin="round"/>
<path d="M48.6199 30.3999L60.0899 9.79993" stroke="#001F45" stroke-width="2" stroke-linecap="round" stroke-linejoin="round"/>
<path d="M48.5999 72.1899L54.1899 62.1899" stroke="#001F45" stroke-width="2" stroke-linecap="round" stroke-linejoin="round"/>
<path d="M48.5999 58.23L51.9499 52.23" stroke="#001F45" stroke-width="2" stroke-linecap="round" stroke-linejoin="round"/>
<path d="M48.5999 44.25L51.9499 38.25" stroke="#001F45" stroke-width="2" stroke-linecap="round" stroke-linejoin="round"/>
<path d="M26.6799 96.4799C43.7899 89.3599 56.9999 74.8099 66.8599 59.5799C67.9999 61.9999 68.6999 63.9999 70.9999 65.3699C71.8658 65.8107 72.8333 66.0134 73.8032 65.9571C74.7732 65.9009 75.7108 65.5878 76.5199 65.0499C78.1215 63.9507 79.4435 62.4918 80.3799 60.7899C82.4103 57.4925 83.8865 53.8847 84.7499 50.1099C89.0994 49.1925 93.1598 47.2292 96.5799 44.3899" stroke="#001F45" stroke-width="2" stroke-linecap="round" stroke-linejoin="round"/>
<path d="M3.45996 43.9999C7.59641 39.2419 11.3893 34.1959 14.81 28.8999C15.94 31.2699 16.64 33.3399 18.9 34.6899C19.7655 35.1317 20.7332 35.335 21.7034 35.2787C22.6736 35.2225 23.6112 34.9088 24.42 34.3699L24.58 34.2699" stroke="#001F45" stroke-width="2" stroke-linecap="round" stroke-linejoin="round"/>
</svg>
