<svg width="303" height="101" viewBox="0 0 303 101" fill="none" xmlns="http://www.w3.org/2000/svg">
<circle cx="48.8277" cy="47.4901" r="47.4901" fill="#FFC531"/>
<circle cx="48.8277" cy="47.4903" r="37.234" fill="#09223B"/>
<rect x="22.5186" y="23.1875" width="88.5144" height="74.9139" fill="#09223B"/>
<rect x="60.6582" y="23.4106" width="10.3065" height="83.7805" transform="rotate(38.9184 60.6582 23.4106)" fill="#FFC531"/>
<rect x="78.9333" y="23.4106" width="10.3065" height="70.6931" transform="rotate(38.9184 78.9333 23.4106)" fill="#FFC531"/>
<path d="M97.2158 23.4106L105.235 29.8853L69.0343 74.7195L61.0154 68.2449L97.2158 23.4106Z" fill="#FFC531"/>
<rect x="31.6597" y="79.1504" width="46.3753" height="21.8499" fill="#09223B"/>
<rect x="59.9756" y="64.2124" width="43.4768" height="18.7285" fill="#09223B"/>
<rect x="32.4014" y="45.4834" width="73.6914" height="2.89845" fill="#09223B"/>
<rect x="15.4839" y="61.5361" width="73.6914" height="2.89845" fill="#09223B"/>
<rect y="77.5889" width="73.6914" height="2.89845" fill="#09223B"/>
<rect x="46.5" y="33.4995" width="58" height="2.75" fill="#09223B"/>
<rect x="60.75" y="33.5005" width="10" height="45.25" transform="rotate(-90 60.75 33.5005)" fill="#FFC531"/>
<path d="M103.5 28.0265C103.5 23.5936 107.094 20 111.526 20H122.323V36.053H111.526C107.094 36.053 103.5 32.4594 103.5 28.0265Z" fill="#FFC531"/>
<rect x="116.945" y="23.0371" width="15.2378" height="2.82012" fill="#FFC531"/>
<rect x="116.945" y="30.1958" width="15.2378" height="2.82012" fill="#FFC531"/>
<path d="M58.3965 74.5957H60.3984V76.998H66.0625V64.9961H68.0645V76.998C68.0645 77.2715 68.0091 77.5319 67.8984 77.7793C67.7943 78.0202 67.651 78.2318 67.4688 78.4141C67.293 78.5964 67.0814 78.7396 66.834 78.8438C66.5931 78.9479 66.3359 79 66.0625 79H60.3984C60.125 79 59.8646 78.9479 59.6172 78.8438C59.3763 78.7396 59.1647 78.5964 58.9824 78.4141C58.8066 78.2318 58.6634 78.0202 58.5527 77.7793C58.4486 77.5319 58.3965 77.2715 58.3965 76.998V74.5957ZM71.668 79V64.9961H79.334C81.5996 64.9961 82.7324 66.1322 82.7324 68.4043V70.3965C82.7324 72.6686 81.5996 73.8047 79.334 73.8047H73.6699V79H71.668ZM73.6699 71.8027H79.2266C79.7604 71.8027 80.1445 71.6855 80.3789 71.4512C80.6133 71.2168 80.7305 70.8327 80.7305 70.2988V68.502C80.7305 67.9681 80.6133 67.584 80.3789 67.3496C80.1445 67.1152 79.7604 66.998 79.2266 66.998H73.6699V71.8027ZM94.334 77.0762C94.334 77.3431 94.2819 77.5938 94.1777 77.8281C94.0801 78.0625 93.9434 78.2676 93.7676 78.4434C93.5983 78.6126 93.3965 78.7493 93.1621 78.8535C92.9342 78.9512 92.6868 79 92.4199 79H87.2539C86.9935 79 86.7461 78.9512 86.5117 78.8535C86.2773 78.7493 86.0723 78.6126 85.8965 78.4434C85.7272 78.2676 85.5905 78.0625 85.4863 77.8281C85.3887 77.5938 85.3398 77.3431 85.3398 77.0762V70.5234C85.3398 70.2565 85.3887 70.0059 85.4863 69.7715C85.5905 69.5371 85.7272 69.3353 85.8965 69.166C86.0723 68.9902 86.2773 68.8535 86.5117 68.7559C86.7461 68.6517 86.9935 68.5996 87.2539 68.5996H92.4199C92.6868 68.5996 92.9342 68.6517 93.1621 68.7559C93.3965 68.8535 93.5983 68.9902 93.7676 69.166C93.9434 69.3353 94.0801 69.5371 94.1777 69.7715C94.2819 70.0059 94.334 70.2565 94.334 70.5234V77.0762ZM87.2539 70.5234V77.0762H92.4199V70.5234H87.2539ZM99.7051 79L96.3457 68.5996H98.2891L100.75 76.4414L103.045 68.5996H105.008L107.303 76.4414L109.764 68.5996H111.707L108.348 79H106.346L104.021 71.3633L101.707 79H99.7051ZM122.518 74.7812H115.633V77.0762H122.518V79H115.633C115.372 79 115.125 78.9512 114.891 78.8535C114.656 78.7493 114.451 78.6126 114.275 78.4434C114.106 78.2676 113.969 78.0625 113.865 77.8281C113.768 77.5938 113.719 77.3431 113.719 77.0762V70.5234C113.719 70.2565 113.768 70.0059 113.865 69.7715C113.969 69.5371 114.106 69.3353 114.275 69.166C114.451 68.9902 114.656 68.8535 114.891 68.7559C115.125 68.6517 115.372 68.5996 115.633 68.5996H120.594C120.861 68.5996 121.111 68.6517 121.346 68.7559C121.58 68.8535 121.782 68.9902 121.951 69.166C122.127 69.3353 122.264 69.5371 122.361 69.7715C122.465 70.0059 122.518 70.2565 122.518 70.5234V74.7812ZM115.633 70.5234V72.8574H120.594V70.5234H115.633ZM127.645 70.5234V79H125.73V68.5996H127.645V70.4355C127.658 70.1816 127.716 69.944 127.82 69.7227C127.924 69.4948 128.061 69.2995 128.23 69.1367C128.406 68.9674 128.608 68.8372 128.836 68.7461C129.064 68.6484 129.308 68.5996 129.568 68.5996H131.609C131.876 68.5996 132.124 68.6517 132.352 68.7559C132.586 68.8535 132.791 68.9902 132.967 69.166C133.143 69.3353 133.279 69.5371 133.377 69.7715C133.481 70.0059 133.533 70.2565 133.533 70.5234V72.2812H131.609V70.5234H127.645ZM142.117 66.998C142.117 66.7246 142.169 66.4674 142.273 66.2266C142.378 65.9792 142.521 65.7676 142.703 65.5918C142.885 65.4095 143.097 65.2663 143.338 65.1621C143.585 65.0514 143.846 64.9961 144.119 64.9961H151.717C151.99 64.9961 152.247 65.0514 152.488 65.1621C152.736 65.2663 152.951 65.4095 153.133 65.5918C153.315 65.7676 153.458 65.9792 153.562 66.2266C153.667 66.4674 153.719 66.7246 153.719 66.998V68.8047H151.717V66.998H144.119V76.998H151.717V75.2012H153.719V76.998C153.719 77.2715 153.667 77.5319 153.562 77.7793C153.458 78.0202 153.315 78.2318 153.133 78.4141C152.951 78.5964 152.736 78.7396 152.488 78.8438C152.247 78.9479 151.99 79 151.717 79H144.119C143.846 79 143.585 78.9479 143.338 78.8438C143.097 78.7396 142.885 78.5964 142.703 78.4141C142.521 78.2318 142.378 78.0202 142.273 77.7793C142.169 77.5319 142.117 77.2715 142.117 76.998V66.998ZM165.721 77.0762C165.721 77.3431 165.669 77.5938 165.564 77.8281C165.467 78.0625 165.33 78.2676 165.154 78.4434C164.985 78.6126 164.783 78.7493 164.549 78.8535C164.321 78.9512 164.074 79 163.807 79H158.641C158.38 79 158.133 78.9512 157.898 78.8535C157.664 78.7493 157.459 78.6126 157.283 78.4434C157.114 78.2676 156.977 78.0625 156.873 77.8281C156.775 77.5938 156.727 77.3431 156.727 77.0762V70.5234C156.727 70.2565 156.775 70.0059 156.873 69.7715C156.977 69.5371 157.114 69.3353 157.283 69.166C157.459 68.9902 157.664 68.8535 157.898 68.7559C158.133 68.6517 158.38 68.5996 158.641 68.5996H163.807C164.074 68.5996 164.321 68.6517 164.549 68.7559C164.783 68.8535 164.985 68.9902 165.154 69.166C165.33 69.3353 165.467 69.5371 165.564 69.7715C165.669 70.0059 165.721 70.2565 165.721 70.5234V77.0762ZM158.641 70.5234V77.0762H163.807V70.5234H158.641ZM178.133 79H176.209V70.5234H170.848V79H168.934V68.5996H170.848V70.4355C170.861 70.1816 170.919 69.944 171.023 69.7227C171.128 69.4948 171.264 69.2995 171.434 69.1367C171.609 68.9674 171.811 68.8372 172.039 68.7461C172.267 68.6484 172.511 68.5996 172.771 68.5996H176.209C176.476 68.5996 176.727 68.6517 176.961 68.7559C177.195 68.8535 177.397 68.9902 177.566 69.166C177.742 69.3353 177.879 69.5371 177.977 69.7715C178.081 70.0059 178.133 70.2565 178.133 70.5234V79ZM190.535 79H188.611V70.5234H183.25V79H181.336V68.5996H183.25V70.4355C183.263 70.1816 183.322 69.944 183.426 69.7227C183.53 69.4948 183.667 69.2995 183.836 69.1367C184.012 68.9674 184.214 68.8372 184.441 68.7461C184.669 68.6484 184.913 68.5996 185.174 68.5996H188.611C188.878 68.5996 189.129 68.6517 189.363 68.7559C189.598 68.8535 189.799 68.9902 189.969 69.166C190.145 69.3353 190.281 69.5371 190.379 69.7715C190.483 70.0059 190.535 70.2565 190.535 70.5234V79ZM202.537 74.7812H195.652V77.0762H202.537V79H195.652C195.392 79 195.145 78.9512 194.91 78.8535C194.676 78.7493 194.471 78.6126 194.295 78.4434C194.126 78.2676 193.989 78.0625 193.885 77.8281C193.787 77.5938 193.738 77.3431 193.738 77.0762V70.5234C193.738 70.2565 193.787 70.0059 193.885 69.7715C193.989 69.5371 194.126 69.3353 194.295 69.166C194.471 68.9902 194.676 68.8535 194.91 68.7559C195.145 68.6517 195.392 68.5996 195.652 68.5996H200.613C200.88 68.5996 201.131 68.6517 201.365 68.7559C201.6 68.8535 201.801 68.9902 201.971 69.166C202.146 69.3353 202.283 69.5371 202.381 69.7715C202.485 70.0059 202.537 70.2565 202.537 70.5234V74.7812ZM195.652 70.5234V72.8574H200.613V70.5234H195.652ZM207.664 70.5234V77.0762H212.625V75.3184H214.549V77.0762C214.549 77.3431 214.497 77.5938 214.393 77.8281C214.295 78.0625 214.158 78.2676 213.982 78.4434C213.813 78.6126 213.611 78.7493 213.377 78.8535C213.143 78.9512 212.892 79 212.625 79H207.664C207.404 79 207.156 78.9512 206.922 78.8535C206.688 78.7493 206.482 78.6126 206.307 78.4434C206.137 78.2676 206.001 78.0625 205.896 77.8281C205.799 77.5938 205.75 77.3431 205.75 77.0762V70.5234C205.75 70.2565 205.799 70.0059 205.896 69.7715C206.001 69.5371 206.137 69.3353 206.307 69.166C206.482 68.9902 206.688 68.8535 206.922 68.7559C207.156 68.6517 207.404 68.5996 207.664 68.5996H212.625C212.892 68.5996 213.143 68.6517 213.377 68.7559C213.611 68.8535 213.813 68.9902 213.982 69.166C214.158 69.3353 214.295 69.5371 214.393 69.7715C214.497 70.0059 214.549 70.2565 214.549 70.5234V72.2812H212.625V70.5234H207.664ZM217.156 68.5996H219.695V65.3965H221.619V68.5996H225.037V70.5234H221.619V77.0762H225.037V79H221.619C221.359 79 221.111 78.9512 220.877 78.8535C220.643 78.7493 220.438 78.6126 220.262 78.4434C220.086 78.2676 219.946 78.0625 219.842 77.8281C219.744 77.5938 219.695 77.3431 219.695 77.0762V70.5234H217.156V68.5996ZM230.271 68.5996V79H228.348V68.5996H230.271ZM228.25 64.5957H230.369V66.5977H228.25V64.5957ZM242.576 77.0762C242.576 77.3431 242.524 77.5938 242.42 77.8281C242.322 78.0625 242.186 78.2676 242.01 78.4434C241.84 78.6126 241.639 78.7493 241.404 78.8535C241.176 78.9512 240.929 79 240.662 79H235.496C235.236 79 234.988 78.9512 234.754 78.8535C234.52 78.7493 234.314 78.6126 234.139 78.4434C233.969 78.2676 233.833 78.0625 233.729 77.8281C233.631 77.5938 233.582 77.3431 233.582 77.0762V70.5234C233.582 70.2565 233.631 70.0059 233.729 69.7715C233.833 69.5371 233.969 69.3353 234.139 69.166C234.314 68.9902 234.52 68.8535 234.754 68.7559C234.988 68.6517 235.236 68.5996 235.496 68.5996H240.662C240.929 68.5996 241.176 68.6517 241.404 68.7559C241.639 68.8535 241.84 68.9902 242.01 69.166C242.186 69.3353 242.322 69.5371 242.42 69.7715C242.524 70.0059 242.576 70.2565 242.576 70.5234V77.0762ZM235.496 70.5234V77.0762H240.662V70.5234H235.496ZM254.988 79H253.064V70.5234H247.703V79H245.789V68.5996H247.703V70.4355C247.716 70.1816 247.775 69.944 247.879 69.7227C247.983 69.4948 248.12 69.2995 248.289 69.1367C248.465 68.9674 248.667 68.8372 248.895 68.7461C249.122 68.6484 249.367 68.5996 249.627 68.5996H253.064C253.331 68.5996 253.582 68.6517 253.816 68.7559C254.051 68.8535 254.253 68.9902 254.422 69.166C254.598 69.3353 254.734 69.5371 254.832 69.7715C254.936 70.0059 254.988 70.2565 254.988 70.5234V79Z" fill="#FFC531"/>
</svg>
