<svg width="100" height="100" viewBox="0 0 100 100" fill="none" xmlns="http://www.w3.org/2000/svg">
<path d="M41.1299 25H29.1299V16C29.1299 15.45 29.5799 15 30.1299 15H40.1299C40.6799 15 41.1299 15.45 41.1299 16V25Z" fill="#9BBFCE"/>
<path d="M70.8701 25H58.8701V16C58.8701 15.45 59.3201 15 59.8701 15H69.8701C70.4201 15 70.8701 15.45 70.8701 16V25Z" fill="#9BBFCE"/>
<path d="M41.1299 19.64H29.1299V15.68C29.1299 15.3 29.4399 15 29.8099 15H40.4499C40.8299 15 41.1299 15.3 41.1299 15.68V19.64Z" fill="#C7DEE5"/>
<path d="M70.8701 19.64H58.8701V15.68C58.8701 15.3 59.1701 15 59.5501 15H70.1901C70.5701 15 70.8701 15.3 70.8701 15.68V19.64Z" fill="#C7DEE5"/>
<path d="M81 85H19C16.79 85 15 83.21 15 81V29C15 26.79 16.79 25 19 25H81C83.21 25 85 26.79 85 29V81C85 83.21 83.21 85 81 85Z" fill="#3ACE5A"/>
<path d="M81 25H19C16.79 25 15 26.79 15 29V30.74H76.64C77.73 30.74 78.62 31.63 78.62 32.72V85H81C83.21 85 85 83.21 85 81V29C85 26.79 83.21 25 81 25Z" fill="#3CE55C"/>
<path d="M81 85V83H19C18.44 83 17.95 82.78 17.59 82.41C17.22 82.05 17 81.56 17 81V29C17 28.44 17.22 27.95 17.59 27.59C17.95 27.22 18.44 27 19 27H81C81.56 27 82.05 27.22 82.41 27.59C82.78 27.95 83 28.44 83 29V81C83 81.56 82.78 82.05 82.41 82.41C82.05 82.78 81.56 83 81 83V85V87C84.31 87 87 84.31 87 81V29C87 25.69 84.31 23 81 23H19C15.69 23 13 25.69 13 29V81C13 84.31 15.69 87 19 87H81V85Z" fill="#1E3D70"/>
<path d="M41.1299 25V23H31.1299V16H30.1299V17C30.6799 17 31.1299 16.55 31.1299 16H30.1299V17H40.1299V16H39.1299C39.1299 16.55 39.5799 17 40.1299 17V16H39.1299V25H41.1299V23V25H43.1299V16C43.1299 14.34 41.7899 13 40.1299 13H30.1299C28.4699 13 27.1299 14.34 27.1299 16V27H43.1299V25H41.1299Z" fill="#1E3D70"/>
<path d="M70.8701 25V23H60.8701V16H59.8701V17C60.4201 17 60.8701 16.55 60.8701 16H59.8701V17H69.8701V16H68.8701C68.8701 16.55 69.3201 17 69.8701 17V16H68.8701V25H70.8701V23V25H72.8701V16C72.8701 14.34 71.5301 13 69.8701 13H59.8701C58.2101 13 56.8701 14.34 56.8701 16V27H72.8701V25H70.8701Z" fill="#1E3D70"/>
<path d="M33.1299 46.2V62.2C33.1299 63.3 34.0299 64.2 35.1299 64.2C36.2299 64.2 37.1299 63.3 37.1299 62.2V46.2C37.1299 45.1 36.2299 44.2 35.1299 44.2C34.0299 44.2 33.1299 45.1 33.1299 46.2Z" fill="#1E3D70"/>
<path d="M43.1299 52.2H27.1299C26.0299 52.2 25.1299 53.1 25.1299 54.2C25.1299 55.3 26.0299 56.2 27.1299 56.2H43.1299C44.2299 56.2 45.1299 55.3 45.1299 54.2C45.1299 53.1 44.2399 52.2 43.1299 52.2Z" fill="#1E3D70"/>
<path d="M72.8701 53H56.8701C55.7701 53 54.8701 53.9 54.8701 55C54.8701 56.1 55.7701 57 56.8701 57H72.8701C73.9701 57 74.8701 56.1 74.8701 55C74.8701 53.9 73.9701 53 72.8701 53Z" fill="#1E3D70"/>
</svg>
