<svg width="100" height="100" viewBox="0 0 100 100" fill="none" xmlns="http://www.w3.org/2000/svg">
<path d="M49.9999 57H26.6699L49.9999 15V43H73.3399L49.9999 85V57Z" fill="#FAB627"/>
<path d="M50 57V43H73.34L50 85V57Z" fill="#FFCD7D"/>
<path d="M50 57V55H30.07L48 22.72V43C48 43.53 48.21 44.04 48.59 44.41C48.96 44.78 49.48 45 50 45H69.93L52 77.28V57C52 56.47 51.79 55.96 51.41 55.59C51.04 55.22 50.52 55 50 55V57H48V85C48 85.91 48.62 86.71 49.5 86.94C50.38 87.17 51.31 86.77 51.75 85.98L75.08 43.98C75.42 43.36 75.41 42.6 75.06 41.99C74.7 41.38 74.04 41 73.34 41H52.01V15C52.01 14.09 51.39 13.29 50.51 13.06C49.63 12.83 48.7 13.23 48.26 14.02L24.93 56.02C24.59 56.64 24.6 57.4 24.95 58.01C25.3 58.62 25.97 59 26.67 59H50V57H48H50Z" fill="#1E3D70"/>
</svg>
