<svg width="100" height="100" viewBox="0 0 100 100" fill="none" xmlns="http://www.w3.org/2000/svg">
<path d="M71.5899 71.37L70.8599 77.56L36.9399 97.14" stroke="#001F45" stroke-width="2" stroke-linecap="round" stroke-linejoin="round"/>
<path d="M21.3999 22.4399V88.1699L36.9399 97.1399L38.9099 80.4899L44.6799 83.4199V54.0599L38.9099 50.3299L36.9399 31.4099L24.4799 24.2099" stroke="#001F45" stroke-width="2" stroke-linecap="round" stroke-linejoin="round"/>
<path d="M21.3999 22.44L55.3199 2.85999L70.8599 11.83L72.8199 30.75L78.5999 34.48V63.84L44.6799 83.42" stroke="#001F45" stroke-width="2" stroke-linecap="round" stroke-linejoin="round"/>
<path d="M75.8999 41.15V58.23L47.3599 74.71V57.63L75.8999 41.15Z" stroke="#001F45" stroke-width="2" stroke-linecap="round" stroke-linejoin="round"/>
<path d="M56.1899 65.75V56.38" stroke="#001F45" stroke-width="2" stroke-linecap="round" stroke-linejoin="round"/>
<path d="M61.6299 62.61V53.25" stroke="#001F45" stroke-width="2" stroke-linecap="round" stroke-linejoin="round"/>
<path d="M67.0698 59.48V50.11" stroke="#001F45" stroke-width="2" stroke-linecap="round" stroke-linejoin="round"/>
<path d="M72.52 56.35V46.98L50.75 59.51V68.88L72.52 56.35Z" stroke="#001F45" stroke-width="2" stroke-linecap="round" stroke-linejoin="round"/>
<path d="M36.9399 31.41L70.8599 11.83" stroke="#001F45" stroke-width="2" stroke-linecap="round" stroke-linejoin="round"/>
<path d="M38.9099 50.33L72.8199 30.75" stroke="#001F45" stroke-width="2" stroke-linecap="round" stroke-linejoin="round"/>
<path d="M44.6799 54.06L78.5999 34.48" stroke="#001F45" stroke-width="2" stroke-linecap="round" stroke-linejoin="round"/>
</svg>
