<svg width="100" height="100" viewBox="0 0 100 100" fill="none" xmlns="http://www.w3.org/2000/svg">
<path d="M91.9002 61.6601L91.8702 65.8401L38.4502 96.6901V53.7401L91.8802 23.4601L92.0102 36.5701" stroke="#001F45" stroke-width="2" stroke-linecap="round" stroke-linejoin="round"/>
<path d="M38.4501 94.3801L3.84009 74.1401L3.94009 33.2001L56.2801 3.31006L91.5701 22.9501" stroke="#001F45" stroke-width="2" stroke-linecap="round" stroke-linejoin="round"/>
<path d="M6.78003 35.17L38.45 53.74" stroke="#001F45" stroke-width="2" stroke-linecap="round" stroke-linejoin="round"/>
<path d="M44.03 62.4801L47.66 64.5801L51.76 72.2901V80.6101L47.66 83.5801" stroke="#001F45" stroke-width="2" stroke-linecap="round" stroke-linejoin="round"/>
<path d="M48.5701 74.1301V82.4401L44.4701 85.4201L40.8401 83.3301V79.3101L43.7701 81.0001L45.5201 79.8701V73.1801L43.7701 70.0301L40.8401 68.3401V64.3201L44.4701 66.4201" stroke="#001F45" stroke-width="2" stroke-linecap="round" stroke-linejoin="round"/>
<path d="M40.8401 64.3201L44.0301 62.4801" stroke="#001F45" stroke-width="2" stroke-linecap="round" stroke-linejoin="round"/>
<path d="M40.8401 79.3101L42.7901 78.1801" stroke="#001F45" stroke-width="2" stroke-linecap="round" stroke-linejoin="round"/>
<path d="M44.7002 85.4201L47.6602 83.5901" stroke="#001F45" stroke-width="2" stroke-linecap="round" stroke-linejoin="round"/>
<path d="M88.4302 37.38L92.0702 39.48L96.1602 47.19V55.5L92.0702 58.48" stroke="#001F45" stroke-width="2" stroke-linecap="round" stroke-linejoin="round"/>
<path d="M92.97 49.0301V57.3401L88.88 60.3201L85.24 58.2201V54.2001L88.17 55.9001L89.92 54.7701V48.0801L88.17 44.9301L85.24 43.2301V39.2201L88.88 41.3101" stroke="#001F45" stroke-width="2" stroke-linecap="round" stroke-linejoin="round"/>
<path d="M85.24 39.22L88.43 37.38" stroke="#001F45" stroke-width="2" stroke-linecap="round" stroke-linejoin="round"/>
<path d="M85.24 54.2001L87.24 53.0601" stroke="#001F45" stroke-width="2" stroke-linecap="round" stroke-linejoin="round"/>
<path d="M89.1101 60.3201L92.0701 58.4801" stroke="#001F45" stroke-width="2" stroke-linecap="round" stroke-linejoin="round"/>
<path d="M83.77 35.5301V32.0101L88.04 29.4601V33.0301L83.77 35.5301Z" stroke="#001F45" stroke-width="2" stroke-miterlimit="10"/>
<path d="M55 80.72L81.3601 65.61L81.2601 38L47.8 57.5V65.01" stroke="#001F45" stroke-width="2" stroke-linecap="round" stroke-linejoin="round"/>
<path d="M55.0601 77.5101L78.5601 64.0001L78.4601 39.7001" stroke="#001F45" stroke-width="2" stroke-linecap="round" stroke-linejoin="round"/>
<path d="M51.75 55.25V72.66" stroke="#001F45" stroke-width="2" stroke-linecap="round" stroke-linejoin="round"/>
<path d="M55.5601 53.0801V77.0201" stroke="#001F45" stroke-width="2" stroke-linecap="round" stroke-linejoin="round"/>
<path d="M59.3701 51.05V75.03" stroke="#001F45" stroke-width="2" stroke-linecap="round" stroke-linejoin="round"/>
<path d="M63.1802 48.5701V72.8401" stroke="#001F45" stroke-width="2" stroke-linecap="round" stroke-linejoin="round"/>
<path d="M66.99 46.3501V70.6501" stroke="#001F45" stroke-width="2" stroke-linecap="round" stroke-linejoin="round"/>
<path d="M70.8 44.1201V68.4701" stroke="#001F45" stroke-width="2" stroke-linecap="round" stroke-linejoin="round"/>
<path d="M74.6201 41.9V66.28" stroke="#001F45" stroke-width="2" stroke-linecap="round" stroke-linejoin="round"/>
<path d="M49.8801 69L78.5601 52.51" stroke="#001F45" stroke-width="2" stroke-linecap="round" stroke-linejoin="round"/>
<path d="M78.5601 64.01L81.3601 65.61" stroke="#001F45" stroke-width="2" stroke-linecap="round" stroke-linejoin="round"/>
</svg>
