<svg width="100" height="100" viewBox="0 0 100 100" fill="none" xmlns="http://www.w3.org/2000/svg">
<path d="M42.36 97.818L19.04 85.258C18.6751 84.9876 18.3896 84.6239 18.2136 84.2051C18.0377 83.7863 17.9777 83.3279 18.04 82.878V27.818C18.0539 26.721 18.3254 25.6427 18.8326 24.67C19.3398 23.6972 20.0686 22.8573 20.96 22.218L55.36 2.35798C55.6279 2.16089 55.9441 2.04007 56.2752 2.00838C56.6062 1.97668 56.9397 2.03529 57.24 2.17798L66.72 7.27798C71.04 9.59798 75.3 11.998 79.64 14.278C80.1778 14.4811 80.663 14.8023 81.06 15.218C81.413 15.7307 81.6077 16.3357 81.62 16.958C82.22 26.558 82.76 36.138 82.72 45.778C82.72 50.778 82.5934 55.778 82.34 60.778C82.22 63.278 82.08 65.778 81.9 68.278C81.9426 70.3006 81.707 72.3195 81.2 74.278C79.96 77.638 76.26 79.718 73.44 81.678C70.216 83.9651 66.8784 86.0878 63.44 88.038C57.16 91.618 50.64 94.658 44.12 97.738C43.724 97.9569 43.2698 98.0477 42.82 97.998C42.4915 97.8938 42.1956 97.7064 41.9608 97.4541C41.726 97.2018 41.5604 96.8931 41.48 96.558C41.3001 95.4989 41.3001 94.4171 41.48 93.358L41.72 89.598C41.86 87.098 41.98 84.598 42.08 82.078C42.28 77.078 42.38 72.078 42.38 67.078C42.38 62.078 42.28 57.258 42.06 52.358C41.96 49.858 41.82 47.358 41.66 44.858C41.23 42.6252 41.23 40.3308 41.66 38.098C41.9117 37.2393 42.3694 36.4551 42.9934 35.8137C43.6173 35.1723 44.3886 34.6932 45.24 34.418C46.4346 34.0369 47.6094 33.5963 48.76 33.098C51.6198 31.9232 54.4109 30.5877 57.12 29.098C62.6018 26.3537 67.8523 23.1699 72.82 19.578C74.4066 18.702 75.7742 17.4781 76.82 15.998" stroke="#001F45" stroke-width="2" stroke-linecap="round" stroke-linejoin="round"/>
<path d="M34.3601 48.098V36.618C34.3771 35.5245 34.6501 34.4501 35.1571 33.4811C35.6642 32.5121 36.3913 31.6754 37.2801 31.038L71.7601 11.158C72.028 10.9789 72.3352 10.8672 72.6556 10.8324C72.9759 10.7976 73.3 10.8407 73.6001 10.958" stroke="#001F45" stroke-width="2" stroke-linecap="round" stroke-linejoin="round"/>
<path d="M35.5601 94.0979C34.8201 93.8179 34.3601 92.9379 34.3601 91.6379V78.6179" stroke="#001F45" stroke-width="2" stroke-linecap="round" stroke-linejoin="round"/>
<path d="M68 50.998L54.92 58.558C53.7 59.258 52.7 58.558 52.7 56.878V49.678C52.7154 48.8474 52.9241 48.0318 53.3094 47.2959C53.6947 46.56 54.2461 45.9238 54.92 45.438L68 37.998C69.22 37.278 70.22 37.998 70.22 39.678V46.858C70.1908 47.6718 69.9755 48.4681 69.5907 49.1858C69.2058 49.9034 68.6617 50.5234 68 50.998V50.998Z" stroke="#001F45" stroke-width="2" stroke-linecap="round" stroke-linejoin="round"/>
<path d="M65.74 46.7579L54.2 53.4179V47.1579L65.74 40.4979V46.7579Z" stroke="#001F45" stroke-width="2" stroke-linecap="round" stroke-linejoin="round"/>
<path d="M42.3601 44.398L45.6201 42.518C46.7201 41.878 47.6201 42.398 47.6201 43.658C47.5819 44.3513 47.381 45.0259 47.0335 45.627C46.686 46.2281 46.2018 46.7389 45.6201 47.118L42.3601 48.998" stroke="#001F45" stroke-width="2" stroke-linecap="round" stroke-linejoin="round"/>
<path d="M42.96 64.858L46.2 62.998C47.32 62.358 48.2 62.858 48.2 64.138C48.165 64.832 47.9653 65.5078 47.6176 66.1094C47.2698 66.711 46.7839 67.2213 46.2 67.598L42.96 69.478" stroke="#001F45" stroke-width="2" stroke-linecap="round" stroke-linejoin="round"/>
<path d="M42.24 85.998L45.48 84.098C46.58 83.478 47.48 83.978 47.48 85.258C47.4364 85.95 47.2332 86.6225 46.8862 87.2228C46.5392 87.8231 46.0579 88.3349 45.48 88.718L42.24 90.598" stroke="#001F45" stroke-width="2" stroke-linecap="round" stroke-linejoin="round"/>
<path d="M81.5601 21.558L78.3601 23.438C77.7773 23.8159 77.2922 24.3264 76.9446 24.9278C76.597 25.5292 76.3967 26.2043 76.3601 26.898V26.898C76.3601 28.158 77.2601 28.678 78.3601 28.038L81.5601 26.158" stroke="#001F45" stroke-width="2" stroke-linecap="round" stroke-linejoin="round"/>
<path d="M82.56 41.9979L79.26 43.8779C78.6776 44.2515 78.1925 44.7583 77.8447 45.3565C77.4969 45.9546 77.2965 46.627 77.26 47.3179C77.26 48.5979 78.16 49.1179 79.26 48.4779L82.56 46.5979" stroke="#001F45" stroke-width="2" stroke-linecap="round" stroke-linejoin="round"/>
<path d="M81.5601 63.098L78.3601 64.978C77.7784 65.3571 77.2942 65.8679 76.9467 66.4691C76.5992 67.0702 76.3983 67.7447 76.3601 68.438V68.438C76.3601 69.718 77.2601 70.218 78.3601 69.598L81.5601 67.718" stroke="#001F45" stroke-width="2" stroke-linecap="round" stroke-linejoin="round"/>
<path d="M34.3999 48.098L37.5399 57.138V73.218L34.3999 78.618" stroke="#001F45" stroke-width="2" stroke-linecap="round" stroke-linejoin="round"/>
<path d="M34.4 46.0779L18 36.6179" stroke="#001F45" stroke-width="2" stroke-linecap="round" stroke-linejoin="round"/>
</svg>
