<svg width="100" height="100" viewBox="0 0 100 100" fill="none" xmlns="http://www.w3.org/2000/svg">
<g filter="url(#filter0_d_99_105)">
<path d="M57 76.9299V74.9299H43C38.02 74.9299 33.54 72.9199 30.27 69.6599C27.01 66.3999 25 61.9099 25 56.9299V30.9299H75V56.9299C75 61.9099 72.99 66.3899 69.73 69.6599C66.47 72.9199 61.98 74.9299 57 74.9299V76.9299V78.9299C69.15 78.9299 79 69.0799 79 56.9299V28.9299C79 28.3999 78.79 27.8899 78.41 27.5199C78.04 27.1499 77.52 26.9299 77 26.9299H23C22.47 26.9299 21.96 27.1399 21.59 27.5199C21.22 27.8899 21 28.4099 21 28.9299V56.9299C21 69.0799 30.85 78.9299 43 78.9299H57V76.9299Z" fill="#09223B"/>
<path d="M37.26 28.9301V13.0801C37.26 11.9801 36.36 11.0801 35.26 11.0801C34.16 11.0801 33.26 11.9801 33.26 13.0801V28.9301C33.26 30.0301 34.16 30.9301 35.26 30.9301C36.36 30.9301 37.26 30.0301 37.26 28.9301Z" fill="#09223B"/>
<path d="M66.74 28.9301V13.0801C66.74 11.9801 65.84 11.0801 64.74 11.0801C63.64 11.0801 62.74 11.9801 62.74 13.0801V28.9301C62.74 30.0301 63.64 30.9301 64.74 30.9301C65.85 30.9301 66.74 30.0301 66.74 28.9301Z" fill="#09223B"/>
<path d="M56.8699 76.9299V84.9299H43.1299V76.9299H39.1299V86.9299C39.1299 87.4599 39.3399 87.97 39.7199 88.34C40.0999 88.71 40.6099 88.9299 41.1299 88.9299H58.8799C59.4099 88.9299 59.9199 88.72 60.2899 88.34C60.6599 87.97 60.8799 87.4499 60.8799 86.9299V76.9299H56.8699Z" fill="#09223B"/>
<path d="M50.0599 39.6298L42.5299 51.8898C42.1499 52.5098 42.1299 53.2799 42.4899 53.9099C42.8499 54.5399 43.5099 54.9299 44.2399 54.9299H52.1999L46.5399 64.1398C45.9599 65.0798 46.2599 66.3098 47.1999 66.8898C48.1399 67.4698 49.3699 67.1699 49.9499 66.2299L57.4799 53.9799C57.8599 53.3599 57.8799 52.5899 57.5199 51.9599C57.1599 51.3299 56.4999 50.9399 55.7699 50.9399H47.8099L53.4699 41.7299C54.0499 40.7899 53.7499 39.5599 52.8099 38.9799C51.8699 38.3899 50.6399 38.6898 50.0599 39.6298Z" fill="#09223B"/>
<path d="M17.6401 30.9299H82.3601C83.4601 30.9299 84.3601 30.0299 84.3601 28.9299C84.3601 27.8299 83.4601 26.9299 82.3601 26.9299H17.6401C16.5401 26.9299 15.6401 27.8299 15.6401 28.9299C15.6401 30.0299 16.5301 30.9299 17.6401 30.9299Z" fill="#09223B"/>
</g>
<defs>
<filter id="filter0_d_99_105" x="11.6401" y="11.0801" width="76.72" height="85.8499" filterUnits="userSpaceOnUse" color-interpolation-filters="sRGB">
<feFlood flood-opacity="0" result="BackgroundImageFix"/>
<feColorMatrix in="SourceAlpha" type="matrix" values="0 0 0 0 0 0 0 0 0 0 0 0 0 0 0 0 0 0 127 0" result="hardAlpha"/>
<feOffset dy="4"/>
<feGaussianBlur stdDeviation="2"/>
<feComposite in2="hardAlpha" operator="out"/>
<feColorMatrix type="matrix" values="0 0 0 0 0 0 0 0 0 0 0 0 0 0 0 0 0 0 0.25 0"/>
<feBlend mode="normal" in2="BackgroundImageFix" result="effect1_dropShadow_99_105"/>
<feBlend mode="normal" in="SourceGraphic" in2="effect1_dropShadow_99_105" result="shape"/>
</filter>
</defs>
</svg>
