<svg width="100" height="100" viewBox="0 0 100 100" fill="none" xmlns="http://www.w3.org/2000/svg">
<path d="M50 85C69.33 85 85 69.33 85 50C85 30.67 69.33 15 50 15C30.67 15 15 30.67 15 50C15 69.33 30.67 85 50 85Z" fill="#3ACE5A"/>
<path d="M50.0001 15C47.9801 15 45.9901 15.18 44.0601 15.51C60.5601 18.33 73.1201 32.69 73.1201 50C73.1201 67.31 60.5601 81.67 44.0601 84.49C45.9901 84.82 47.9701 85 50.0001 85C69.3301 85 85.0001 69.33 85.0001 50C85.0001 30.67 69.3301 15 50.0001 15Z" fill="#3CE55C"/>
<path d="M85 50H83C83 59.12 79.31 67.36 73.33 73.33C67.35 79.3 59.11 82.99 50 83C40.88 83 32.64 79.31 26.67 73.33C20.7 67.35 17.01 59.11 17 50C17 40.88 20.69 32.64 26.67 26.67C32.65 20.7 40.89 17.01 50 17C59.12 17 67.36 20.69 73.33 26.67C79.3 32.65 82.99 40.89 83 50H85H87C87 29.56 70.44 13 50 13C29.56 13 13 29.56 13 50C13 70.44 29.56 87 50 87C70.44 87 87 70.44 87 50H85Z" fill="#1E3D70"/>
<path d="M66 50H64C64.01 59.42 62.24 67.93 59.49 73.92C58.12 76.91 56.52 79.26 54.86 80.78C54.04 81.54 53.21 82.1 52.4 82.46C51.59 82.82 50.8 83 49.99 83C49.18 83 48.39 82.83 47.58 82.46C46.17 81.83 44.68 80.58 43.29 78.73C41.2 75.95 39.34 71.86 38.04 66.91C36.74 61.97 35.99 56.18 35.99 50C35.98 40.58 37.75 32.07 40.5 26.08C41.87 23.09 43.48 20.74 45.13 19.22C45.95 18.46 46.78 17.9 47.59 17.54C48.4 17.18 49.19 17 50 17C50.81 17 51.6 17.17 52.41 17.54C53.82 18.17 55.31 19.42 56.7 21.27C58.79 24.05 60.65 28.14 61.95 33.09C63.25 38.03 64 43.82 64 50H66H68C67.99 40.09 66.18 31.1 63.13 24.42C61.6 21.08 59.76 18.3 57.58 16.28C56.49 15.27 55.31 14.45 54.04 13.88C52.77 13.31 51.4 12.99 50 12.99C48.6 12.99 47.23 13.3 45.96 13.88C43.73 14.88 41.79 16.62 40.11 18.86C37.59 22.22 35.59 26.75 34.19 32.07C32.79 37.39 32.01 43.49 32 50C32.01 59.91 33.82 68.9 36.87 75.58C38.4 78.92 40.24 81.7 42.42 83.72C43.51 84.73 44.69 85.55 45.96 86.12C47.23 86.69 48.6 87.01 50 87.01C51.4 87.01 52.77 86.69 54.04 86.12C56.27 85.12 58.21 83.38 59.89 81.14C62.41 77.78 64.41 73.25 65.81 67.93C67.21 62.61 67.99 56.51 68 50H66Z" fill="#1E3D70"/>
<path d="M23.2301 73.27C26.1901 71.43 30.1301 69.85 34.7001 68.75C39.2701 67.65 44.4801 67.02 50.0001 67.02C55.4501 67.02 60.6001 67.63 65.1301 68.7C69.6601 69.77 73.5701 71.31 76.5501 73.12L78.6301 69.7C75.2001 67.62 70.9201 65.96 66.0601 64.81C61.2001 63.66 55.7601 63.02 50.0101 63.02C44.1901 63.02 38.6801 63.68 33.7701 64.86C28.8601 66.04 24.5601 67.74 21.1201 69.87L23.2301 73.27Z" fill="#1E3D70"/>
<path d="M76.8 26.7199C73.84 28.5699 69.9 30.1499 65.33 31.2499C60.75 32.3499 55.54 32.9799 50.01 32.9799C44.46 32.9799 39.22 32.3499 34.63 31.2399C30.04 30.1299 26.1 28.5399 23.14 26.6799L21 30.0599C24.43 32.2199 28.75 33.9299 33.68 35.1199C38.61 36.3099 44.14 36.9799 50 36.9799C55.83 36.9799 61.35 36.3199 66.26 35.1399C71.17 33.9599 75.48 32.2599 78.91 30.1199L76.8 26.7199Z" fill="#1E3D70"/>
<path d="M15 52H85V48H15" fill="#1E3D70"/>
<path d="M48 15V85H52V15" fill="#1E3D70"/>
</svg>
